<?xml version="1.0" encoding="utf-8"?>
<!-- Generator: Adobe Illustrator 23.0.4, SVG Export Plug-In . SVG Version: 6.00 Build 0)  -->
<svg version="1.1" id="Capa_1" xmlns="http://www.w3.org/2000/svg" xmlns:xlink="http://www.w3.org/1999/xlink" x="0px" y="0px"
	 viewBox="0 0 15.2 15.2" style="enable-background:new 0 0 15.2 15.2;" xml:space="preserve">
<style type="text/css">
	.st0{fill:#FFFFFF;}
</style>
<g>
	<g>
		<path class="st0" d="M13.5,7.4c0,0-8.1,0-10.3,0l0.3-0.2c2.5-1.5,8.2-5,8.2-5C12,2,12.1,1.7,11.9,1.5l-0.5-1.2
			C11.3,0,11-0.1,10.8,0.1L1.5,5.7C1.3,5.8,1.2,6.1,1.3,6.4l0.9,1l0,7.4c0,0.3,0.2,0.5,0.5,0.5h10.8c0.3,0,0.5-0.2,0.5-0.5V7.9
			C14,7.6,13.8,7.4,13.5,7.4z M9.9,8L8.4,9.4h-2L7.9,8C7.9,8,9.9,8,9.9,8z M9.3,1.4L11,0.3l-0.3,1.6L9,3.1L9.3,1.4z M6.2,3.3L8,2.2
			L7.6,3.9L5.9,5L6.2,3.3z M2.7,7L3,5.3l1.8-1.1L4.4,5.9L2.7,7z M4.5,8h2L5,9.4H3L4.5,8z M11.9,9.4h-2L11.4,8h1.9L11.9,9.4z"/>
	</g>
</g>
</svg>
